#!OML:ASF H:\Terrain\Patient Classification 1\Walking\steve\steve.ASF
:FULLY-SPECIFIED
:DEGREES
16
root 8.87326 15.5181 -31.3545 10.4218 -6.03005 -6.14583
lowerback 1.60639 3.8151 6.05924
upperback -2.27923 5.33536 1.91895
thorax -2.88982 2.5446 -1.59732
lowerneck -9.13726 -1.69535 -2.97234
upperneck 12.9252 -2.38015 3.70847
head 5.47699 -1.04457 1.47217
rclavicle 2.60408e-014 5.1684e-015
rhumerus -30.4883 18.422 -89.7993
rradius 57.1831
rwrist -8.23998
rhand -25.2728 -41.2743
rfingers 7.12502
rthumb 1.24806 -71.2504
lclavicle 2.60408e-014 5.1684e-015
lhumerus -47.0224 21.9892 65.0706
lradius 9.01215
lwrist -27.5246
lhand -23.5208 -14.5299
lfingers 7.12502
lthumb 2.94019 15.4295
rfemur -1.51569 -3.48752 27.984
rtibia 22.5414
rfoot -14.4938 22.7643
rtoes 4.33875
lfemur -43.4223 2.26428 -12.1643
ltibia 27.1209
lfoot -17.5338 8.07128
ltoes -21.2837
17
root 8.88971 15.5022 -31.0518 10.5431 -6.49395 -6.63109
lowerback 1.48045 3.95622 6.29265
upperback -2.31804 5.52409 2.0064
thorax -2.83445 2.63518 -1.63144
lowerneck -9.0238 -1.72856 -3.10677
upperneck 12.7911 -2.42391 3.84557
head 5.42061 -1.06482 1.53447
rclavicle -1.05853e-014 7.95139e-016
rhumerus -30.0287 19.8531 -89.8948
rradius 58.8799
rwrist -8.55063
rhand -25.3219 -40.8424
rfingers 7.12502
rthumb 1.20068 -70.8187
lclavicle -1.05853e-014 7.95139e-016
lhumerus -47.9364 22.0814 64.3175
lradius 7.53616
lwrist -26.8155
lhand -24.5484 -14.35
lfingers 7.12502
lthumb 1.94771 15.6209
rfemur 0.280526 -3.84299 27.9668
rtibia 21.011
rfoot -12.8119 23.1873
rtoes 4.2472
lfemur -43.249 1.10789 -10.2212
ltibia 23.8454
lfoot -17.7944 9.43633
ltoes -22.6566
18
root 8.9049 15.4925 -30.7474 10.8137 -7.05867 -6.58263
lowerback 1.1867 4.07354 5.87744
upperback -2.45428 5.65172 1.96582
thorax -2.83496 2.7064 -1.4322
lowerneck -8.86168 -1.61947 -3.20676
upperneck 12.7896 -2.30193 4.1033
head 5.39192 -0.994242 1.64176
rclavicle -4.77083e-015 -1.31198e-014
rhumerus -29.7025 21.3032 -90.0079
rradius 60.4921
rwrist -8.60978
rhand -25.5942 -39.6425
rfingers 7.12502
rthumb 0.937706 -69.6202
lclavicle -4.77083e-015 -1.31198e-014
lhumerus -48.9994 22.1681 63.4124
lradius 6.16288
lwrist -25.9081
lhand -25.7667 -14.7578
lfingers 7.12502
lthumb 0.771079 15.2206
rfemur 1.74536 -3.96885 27.3561
rtibia 19.6932
rfoot -10.9589 23.6986
rtoes 5.5929
lfemur -43.1447 0.196463 -8.98
ltibia 20.6739
lfoot -17.5134 11.1808
ltoes -24.1352
19
root 8.91896 15.493 -30.4431 11.0088 -7.69463 -6.3092
lowerback 0.836021 4.17628 5.27872
upperback -2.50876 5.74721 1.84204
thorax -2.73047 2.76938 -1.20824
lowerneck -8.86854 -1.50335 -3.37249
upperneck 12.914 -2.16643 4.4011
head 5.43125 -0.914983 1.77284
rclavicle 1.0635e-013 3.39922e-014
rhumerus -29.6586 22.5551 -90.0898
rradius 62.5954
rwrist -8.44091
rhand -25.238 -39.771
rfingers 7.12502
rthumb 1.28169 -69.7469
lclavicle 1.0635e-013 3.39922e-014
lhumerus -49.9852 22.3136 62.4589
lradius 5.2537
lwrist -25.8521
lhand -26.4016 -12.9301
lfingers 7.12502
lthumb 0.157882 17.0496
rfemur 3.1874 -4.11701 26.46
rtibia 18.4741
rfoot -8.92771 24.2773
rtoes 6.11044
lfemur -42.9199 -0.098273 -8.4398
ltibia 17.7616
lfoot -16.6995 12.6711
ltoes -24.9784
20
root 8.93517 15.473 -30.1386 11.0966 -8.55132 -6.52269
lowerback 0.694614 4.43346 5.17949
upperback -2.55682 6.07959 1.81989
thorax -2.68955 2.93781 -1.17248
lowerneck -8.85384 -1.42824 -3.30034
upperneck 13.0917 -2.09112 4.47066
head 5.48084 -0.869116 1.78911
rclavicle -1.27968e-014 -9.14409e-015
rhumerus -29.8372 23.2328 -90.1034
rradius 64.9727
rwrist -7.85295
rhand -24.6895 -40.1741
rfingers 7.12502
rthumb 1.81145 -70.1462
lclavicle -1.27968e-014 -9.14409e-015
lhumerus -51.1046 22.1548 61.5132
lradius 4.83898
lwrist -25.4178
lhand -26.4171 -11.3086
lfingers 7.12502
lthumb 0.142914 18.671
rfemur 4.96047 -4.07252 26.0143
rtibia 16.8435
rfoot -6.21288 24.6198
rtoes 5.35239
lfemur -42.7685 -0.0812646 -7.43351
ltibia 15.7251
lfoot -16.9046 13.6827
ltoes -23.9581
21
root 8.95792 15.4428 -29.8276 11.2473 -9.28006 -6.85289
lowerback 0.553311 4.71586 5.36752
upperback -2.68721 6.4533 1.70964
thorax -2.6927 3.11674 -1.38553
lowerneck -8.48961 -1.46381 -3.1068
upperneck 12.8053 -2.18141 4.57914
head 5.33245 -0.902662 1.78527
rclavicle 5.91136e-014 3.79679e-014
rhumerus -29.3766 23.5475 -90.1531
rradius 65.9692
rwrist -6.86747
rhand -24.4045 -38.9459
rfingers 7.12502
rthumb 2.08668 -68.9155
lclavicle 5.91136e-014 3.79679e-014
lhumerus -52.2844 21.6177 60.4352
lradius 4.60491
lwrist -24.3543
lhand -26.0228 -11.4859
lfingers 7.12502
lthumb 0.523713 18.4932
rfemur 6.63964 -3.91748 25.7358
rtibia 15.2349
rfoot -3.64089 24.6789
rtoes 4.68843
lfemur -42.7276 -0.831369 -5.80672
ltibia 14.2127
lfoot -18.2921 15.1129
ltoes -21.5884
22
root 8.98047 15.4448 -29.5118 11.5256 -9.75271 -7.08674
lowerback 0.0832879 4.86936 5.5496
upperback -2.70895 6.62185 1.50788
thorax -2.39791 3.20245 -1.64705
lowerneck -8.45878 -1.49941 -2.92534
upperneck 12.4924 -2.27571 4.803
head 5.23454 -0.927987 1.81784
rclavicle 2.59166e-014 3.68746e-014
rhumerus -28.3509 24.0021 -90.2659
rradius 66.1464
rwrist -5.82544
rhand -24.5938 -37.7546
rfingers 7.12502
rthumb 1.90391 -67.7259
lclavicle 2.59166e-014 3.68746e-014
lhumerus -53.3887 21.2336 59.2308
lradius 4.67894
lwrist -23.5268
lhand -25.6981 -11.6046
lfingers 7.12502
lthumb 0.837343 18.3735
rfemur 8.29999 -3.75926 25.4925
rtibia 13.2398
rfoot -1.53692 24.3956
rtoes 4.53943
lfemur -43.1646 -1.77375 -4.28876
ltibia 13.8096
lfoot -19.1738 17.2824
ltoes -23.6544
23
root 8.99939 15.3932 -29.1974 11.7501 -10.3548 -7.36426
lowerback -0.330401 5.00759 5.54435
upperback -2.65724 6.77074 1.43992
thorax -2.09499 3.28562 -1.66995
lowerneck -8.85815 -1.38548 -2.72224
upperneck 12.5848 -2.16509 4.9371
head 5.32619 -0.849299 1.83293
rclavicle 7.47058e-014 1.85864e-014
rhumerus -27.6437 24.6947 -90.338
rradius 66.966
rwrist -4.84678
rhand -25.5916 -38.1942
rfingers 7.12502
rthumb 0.94019 -68.1719
lclavicle 7.47058e-014 1.85864e-014
lhumerus -54.6006 21.1121 58.1016
lradius 5.08037
lwrist -22.8358
lhand -25.6625 -11.0802
lfingers 7.12502
lthumb 0.87174 18.8978
rfemur 9.9966 -3.11567 25.3444
rtibia 11.5008
rfoot -0.134261 23.825
rtoes 4.36521
lfemur -43.4341 -2.45047 -2.84113
ltibia 13.7586
lfoot -21.1206 17.2801
ltoes -19.8802
24
root 9.01218 15.3828 -28.8838 11.7358 -11.0487 -7.51691
lowerback -0.365615 5.14928 5.23981
upperback -2.65511 6.95506 1.47411
thorax -2.0995 3.38446 -1.46659
lowerneck -8.93922 -1.29417 -2.81144
upperneck 12.4967 -2.05187 5.13925
head 5.31088 -0.784365 1.91863
rclavicle 9.63112e-014 3.95581e-014
rhumerus -27.5432 25.434 -90.3228
rradius 68.2177
rwrist -4.18492
rhand -26.4806 -38.895
rfingers 7.12502
rthumb 0.0815685 -68.8747
lclavicle 9.63112e-014 3.95581e-014
lhumerus -55.9144 20.9869 57.0872
lradius 5.49342
lwrist -22.1409
lhand -25.2418 -10.7769
lfingers 7.12502
lthumb 1.27807 19.199
rfemur 11.8408 -1.5811 25.25
rtibia 9.94035
rfoot 1.4282 22.2933
rtoes 4.40238
lfemur -43.4792 -2.65166 -2.02636
ltibia 14.3571
lfoot -21.6343 17.8768
ltoes -20.9925
25
root 9.02791 15.3161 -28.567 11.7111 -11.5515 -7.65629
lowerback -0.273443 5.31584 5.03541
upperback -2.80764 7.18798 1.41479
thorax -2.31141 3.49725 -1.43473
lowerneck -8.71284 -1.33641 -2.89785
upperneck 12.3618 -2.13301 5.41381
head 5.23755 -0.81418 2.01323
rclavicle -3.43804e-014 -3.63341e-014
rhumerus -28.0176 25.5938 -90.4307
rradius 69.3838
rwrist -3.65404
rhand -26.5785 -38.1576
rfingers 7.12502
rthumb -0.0130146 -68.1373
lclavicle -3.43804e-014 -3.63341e-014
lhumerus -56.9818 20.4905 56.0976
lradius 5.52224
lwrist -21.578
lhand -24.4759 -10.7607
lfingers 7.12502
lthumb 2.0177 19.2095
rfemur 13.1754 -0.235588 25.2095
rtibia 9.5876
rfoot 2.5132 21.1114
rtoes 1.32172
lfemur -43.3799 -1.37411 -2.64624
ltibia 14.8896
lfoot -21.1554 16.4787
ltoes -21.5546
